# xmcd
#
# Track frame offsets:
#       183
#       22265
#       38295
#       52953
#       76998
#       90365
#       117838
#       138035
#       150758
#       170340
#       184980
#       208935
#       226143
#       239725
#       253063
#
# Disc length: 3466 seconds
#
# Revision: 1
# Processed by: cddbd v1.4PL0 Copyright (c) Steve Scherf et al.
# Submitted via: MusiCat 1.1
#
DISCID=b50d880f
DTITLE=John Dee Holeman - Piedmont blues de Caroline du Nord
DYEAR=1992
DGENRE=
TTITLE0=Shotgun Blues
TTITLE1=Early Morning bLues
TTITLE2=Black Rat
TTITLE3=Sugar Mama
TTITLE4=Come on down to my house baby
TTITLE5=You better believe what I say
TTITLE6=Look on yonder wall
TTITLE7=I'm going to dig myself a hole
TTITLE8=Baby, You don't have to go
TTITLE9=Chapel Hill Boogie
TTITLE10=My Baby is a country Girl
TTITLE11=I've got a little girl
TTITLE12=I don't care where you go
TTITLE13=I'm going to get my baby
TTITLE14=Patting Juba
EXTD=1992\n\n\nsubmitted by Stamppot
EXTT0=
EXTT1=
EXTT2=
EXTT3=
EXTT4=
EXTT5=
EXTT6=
EXTT7=
EXTT8=
EXTT9=
EXTT10=
EXTT11=
EXTT12=
EXTT13=
EXTT14=
PLAYORDER=
